# xmcd CD database file
#
# Track frame offsets:
#	150
#	11052
#	30109
#	46189
#	66842
#	79549
#	99938
#	116580
#	142779
#	156576
#	174981
#	193747
#	214388
#	232015
#	247875
#	266859
#	285598
#	308229
#
# Disc length: 4307 seconds
#
# Revision: 0
# Processed by: cddbd v1.5.2PL0 Copyright (c) Steve Scherf et al.
# Submitted via: CDex 1.51
#
DISCID=f110d112
DTITLE=Various Artist - Los Guiris
DYEAR=2000
DGENRE=Salsa
TTITLE0=Clandestino
TTITLE1=Dame El Poder
TTITLE2=Libre
TTITLE3=La Bomba
TTITLE4=El 28
TTITLE5=Oye Mi Amor
TTITLE6=La Charla Del Pescado
TTITLE7=Carnaval
TTITLE8=Pa'Calor
TTITLE9=Pájaros De Barro
TTITLE10=Kanela Y Menta
TTITLE11=Corazón Espinado
TTITLE12=Sueño Su Boca
TTITLE13=Si Te Vas
TTITLE14=Augua
TTITLE15=Rosa
TTITLE16=El Tiburón
TTITLE17=La Bomba
EXTD=YEAR: 2000
EXTT0=
EXTT1=
EXTT2=
EXTT3=
EXTT4=
EXTT5=
EXTT6=
EXTT7=
EXTT8=
EXTT9=
EXTT10=
EXTT11=
EXTT12=
EXTT13=
EXTT14=
EXTT15=
EXTT16=
EXTT17=
PLAYORDER=
